<svg preserveAspectRatio="none" width="100%" height="100%" overflow="visible" style="display: block;" viewBox="0 0 37 11" fill="none" xmlns="http://www.w3.org/2000/svg">
<g id="clerk-logotype-full-primary 1" clip-path="url(#clip0_0_4)">
<path id="Vector" d="M14.0089 3.51632C14.9826 3.51632 16.0077 3.91215 16.6427 4.67808C16.6469 4.6831 16.6463 4.69062 16.6414 4.69495L15.6856 5.54215C15.6807 5.5465 15.6732 5.54596 15.669 5.54097C15.4747 5.31482 15.2336 5.13376 14.9623 5.01041C14.6875 4.88548 14.3885 4.82287 14.0867 4.82713C12.9616 4.82713 12.2115 5.61704 12.2115 6.77188C12.2115 7.34878 12.398 7.83277 12.7222 8.17172C12.9007 8.3508 13.1138 8.49134 13.3484 8.58471C13.5831 8.67805 13.8344 8.72231 14.0867 8.71458C14.3855 8.71733 14.6819 8.65898 14.9574 8.54308C15.2296 8.42867 15.476 8.26056 15.6819 8.04877C15.6862 8.04427 15.6933 8.04396 15.698 8.0481L16.675 8.91155C16.68 8.91593 16.6805 8.92366 16.6761 8.92873C16.131 9.54534 15.166 10.0344 13.958 10.0344C13.0234 10.0344 12.2134 9.69839 11.6449 9.12648C11.0764 8.55461 10.7392 7.74471 10.7392 6.78288C10.7392 4.83818 12.0958 3.51634 14.0089 3.51632Z" fill="var(--fill-0, #131316)"/>
<path id="Vector_2" fill-rule="evenodd" clip-rule="evenodd" d="M22.8458 3.51691C24.6972 3.51693 25.8945 4.85068 25.8945 6.69224C25.8919 6.88354 25.879 7.0746 25.8561 7.26451C25.8554 7.27055 25.8503 7.27508 25.8444 7.27508H21.2919C21.2844 7.27508 21.2788 7.28233 21.2805 7.28985C21.4752 8.17386 22.1421 8.71269 23.0642 8.71269C23.3645 8.71913 23.662 8.65597 23.9341 8.52781C24.2024 8.4014 24.4388 8.21519 24.6251 7.9834C24.6293 7.97821 24.6368 7.97749 24.6418 7.98181L24.6793 8.01386L25.6159 8.84907C25.6207 8.85328 25.6214 8.86076 25.6174 8.86574C25.0875 9.53898 24.2072 10.0344 22.9867 10.0344C21.1601 10.0344 19.7821 8.73873 19.7821 6.7702C19.7821 5.80444 20.1068 4.99455 20.6478 4.4227C20.9334 4.12865 21.2758 3.8966 21.6537 3.74082C22.0317 3.58504 22.4374 3.50883 22.8458 3.51691ZM22.9202 4.82561C22.6891 4.81811 22.4592 4.86096 22.246 4.95116C22.0329 5.04143 21.8416 5.17703 21.6853 5.34854C21.5007 5.56288 21.3701 5.8187 21.3045 6.09445C21.3027 6.10201 21.3083 6.1093 21.3159 6.10931H24.4232C24.4307 6.10931 24.4364 6.10195 24.4345 6.09437C24.2536 5.33777 23.7387 4.82561 22.9202 4.82561Z" fill="var(--fill-0, #131316)"/>
<path id="Vector_3" d="M18.933 1.02917C18.9396 1.02917 18.9448 1.03458 18.9448 1.04126V9.93652C18.9448 9.94323 18.9396 9.94864 18.933 9.94864H17.5332C17.5267 9.94864 17.5214 9.94323 17.5214 9.93652V1.04126C17.5214 1.03459 17.5267 1.02919 17.5332 1.02917H18.933Z" fill="var(--fill-0, #131316)"/>
<path id="Vector_4" d="M30.3203 3.51649C30.3268 3.51642 30.3322 3.52186 30.3322 3.52858V5.12287C30.3322 5.12989 30.3263 5.13547 30.3195 5.13496C30.1564 5.12232 29.994 5.10995 29.894 5.10995C28.7984 5.10996 28.1552 5.89974 28.1552 6.93645V9.93652C28.1552 9.94323 28.1499 9.94864 28.1433 9.94864H26.7436C26.7371 9.94864 26.7318 9.94323 26.7318 9.93652V3.61837C26.7318 3.61171 26.7371 3.60629 26.7436 3.60629H28.1433C28.1499 3.60629 28.1552 3.61171 28.1552 3.61837V4.55824C28.1552 4.56311 28.1591 4.56705 28.1639 4.56705C28.1666 4.56705 28.1692 4.56575 28.1708 4.56352C28.6617 3.89195 29.3864 3.51834 30.152 3.51834L30.3203 3.51649Z" fill="var(--fill-0, #131316)"/>
<path id="Vector_5" d="M32.5811 1.02917C32.5877 1.02918 32.593 1.03458 32.593 1.04126V6.4695C32.593 6.48051 32.6061 6.48576 32.6134 6.47764L35.1884 3.60259C35.1907 3.60011 35.1938 3.59865 35.1972 3.59865H36.8804C36.8907 3.59865 36.8961 3.61111 36.8893 3.61888L34.6448 6.15538C34.6412 6.15937 34.6406 6.16532 34.6434 6.1699L36.9187 9.93016C36.9236 9.93824 36.9179 9.94864 36.9087 9.94864H35.3118C35.3077 9.94864 35.3039 9.94649 35.3018 9.94288L33.688 7.28642C33.6859 7.28288 33.6822 7.2807 33.6781 7.2807H33.663C33.6597 7.2807 33.6565 7.28211 33.6542 7.28457L32.5961 8.44909C32.5941 8.45132 32.593 8.45426 32.593 8.45731V9.93652C32.593 9.94323 32.5877 9.94864 32.5811 9.94864H31.1813C31.1748 9.94864 31.1695 9.94323 31.1695 9.93652V1.04126C31.1695 1.03458 31.1748 1.02918 31.1813 1.02917H32.5811Z" fill="var(--fill-0, #131316)"/>
<path id="Vector_6" d="M8.35408 0.927094C8.52183 1.04218 8.53618 1.28428 8.39338 1.43052L7.16713 2.68656C7.0563 2.80008 6.88437 2.81801 6.74486 2.74482C6.33239 2.52837 5.86492 2.40625 5.36961 2.40625C3.70148 2.40625 2.34921 3.79136 2.34921 5.5C2.34921 6.00733 2.46843 6.48615 2.67975 6.90864C2.75121 7.05153 2.7337 7.22764 2.62287 7.34116L1.3966 8.59719C1.25384 8.74345 1.01747 8.72876 0.905116 8.55693C0.333429 7.68272 0 6.63124 0 5.5C0 2.46244 2.40406 0 5.36961 0C6.47403 0 7.50059 0.341525 8.35408 0.927094Z" fill="var(--fill-0, #BAB1FF)"/>
<path id="Vector_7" d="M7.04762 5.5C7.04762 6.44924 6.29635 7.21875 5.36961 7.21875C4.44288 7.21875 3.69161 6.44924 3.69161 5.5C3.69161 4.55076 4.44288 3.78125 5.36961 3.78125C6.29635 3.78125 7.04762 4.55076 7.04762 5.5Z" fill="var(--fill-0, #6C47FF)"/>
<path id="Vector_8" d="M8.39338 9.56948C8.53618 9.71575 8.52183 9.95783 8.35409 10.0729C7.50059 10.6585 6.47404 11 5.36961 11C4.26519 11 3.23864 10.6585 2.38514 10.0729C2.21739 9.95783 2.20306 9.71575 2.34583 9.56948L3.57209 8.31344C3.68293 8.19991 3.85485 8.18198 3.99436 8.25518C4.40684 8.47163 4.8743 8.59375 5.36961 8.59375C5.86493 8.59375 6.33239 8.47163 6.74487 8.25518C6.88437 8.18198 7.05631 8.19991 7.16713 8.31344L8.39338 9.56948Z" fill="var(--fill-0, #6C47FF)"/>
</g>
<defs>
<clipPath id="clip0_0_4">
<rect width="37" height="11" fill="white"/>
</clipPath>
</defs>
</svg>
