<svg width="360" height="40" viewBox="0 0 360 40" xmlns="http://www.w3.org/2000/svg">
  <g font-family="&#39;IBM Plex Sans&#39;, system-ui, sans-serif">
    
    <rect x="2" y="4" width="32" height="32" rx="6" fill="#185FA5"></rect>
    <g transform="translate(2,4)">
      <path d="M9 8 H21 L25 12 V25 Q25 26 24 26 H10 Q9 26 9 25 Z" fill="#FFFFFF"></path>
      <path d="M21 8 V12 H25 Z" fill="#E1E5E8"></path>
      <path d="M11.5 14.5 L12.5 15.5 L14 14" stroke="#3B6D11" stroke-width="1.4" stroke-linecap="round" stroke-linejoin="round" fill="none"></path>
      <rect x="15.5" y="14.1" width="7" height="1.4" rx="0.7" fill="#5A5950"></rect>
      <path d="M11.5 18.5 L12.5 19.5 L14 18" stroke="#3B6D11" stroke-width="1.4" stroke-linecap="round" stroke-linejoin="round" fill="none"></path>
      <rect x="15.5" y="18.1" width="5.5" height="1.4" rx="0.7" fill="#5A5950"></rect>
      <rect x="11.2" y="21.6" width="2.6" height="2.6" rx="0.5" fill="none" stroke="#97968E" stroke-width="1"></rect>
      <rect x="15.5" y="22.2" width="4" height="1.4" rx="0.7" fill="#C4C2BC"></rect>
    </g>
    <text x="44" y="22" font-size="15" font-weight="600" letter-spacing="-0.01em" fill="#18180F">Training Compliance System</text>
    <text x="44" y="33" font-size="9" font-weight="400" letter-spacing="0.06em" fill="#5A5950">VERSION 1.0 · OPERATIONAL DATA UI · TESDA TVI</text>
  </g>
</svg>